<mxfile host="app.diagrams.net" modified="2023-07-25T17:27:38.833Z" agent="Mozilla/5.0 (Windows NT 10.0; Win64; x64; rv:102.0) Gecko/20100101 Firefox/102.0" etag="H9z2XEfjMERKj5z1IXLk" version="21.6.5" type="github">
  <diagram id="6a731a19-8d31-9384-78a2-239565b7b9f0" name="Page-1">
    <mxGraphModel dx="1195" dy="-175" grid="1" gridSize="10" guides="1" tooltips="1" connect="1" arrows="1" fold="1" page="1" pageScale="1" pageWidth="1169" pageHeight="827" background="none" math="0" shadow="0">
      <root>
        <mxCell id="0" />
        <mxCell id="1" parent="0" />
        <mxCell id="Bg-LwxP5u8JBHM3GzIbE-153" value="" style="strokeColor=#FFFFFF;fillColor=#BAC8D3;fontSize=18;strokeWidth=2;fontFamily=Helvetica;html=1;opacity=60;" vertex="1" parent="1">
          <mxGeometry x="2184" y="1730" width="646.6666666666666" height="100" as="geometry" />
        </mxCell>
        <mxCell id="Bg-LwxP5u8JBHM3GzIbE-150" value="" style="strokeColor=#FFFFFF;fillColor=#BAC8D3;fontSize=18;strokeWidth=2;fontFamily=Helvetica;html=1;opacity=90;" vertex="1" parent="1">
          <mxGeometry x="2184" y="1630.5" width="646.6666666666666" height="100" as="geometry" />
        </mxCell>
        <mxCell id="Bg-LwxP5u8JBHM3GzIbE-152" value="" style="strokeColor=#FFFFFF;fillColor=#BAC8D3;fontSize=18;strokeWidth=2;fontFamily=Helvetica;html=1;opacity=60;" vertex="1" parent="1">
          <mxGeometry x="1537.67" y="1730" width="646.6666666666666" height="100" as="geometry" />
        </mxCell>
        <mxCell id="Bg-LwxP5u8JBHM3GzIbE-149" value="" style="strokeColor=#FFFFFF;fillColor=#BAC8D3;fontSize=18;strokeWidth=2;fontFamily=Helvetica;html=1;opacity=90;" vertex="1" parent="1">
          <mxGeometry x="1537.67" y="1630" width="646.6666666666666" height="100" as="geometry" />
        </mxCell>
        <mxCell id="Bg-LwxP5u8JBHM3GzIbE-151" value="" style="strokeColor=#FFFFFF;fillColor=#BAC8D3;fontSize=18;strokeWidth=2;fontFamily=Helvetica;html=1;opacity=60;" vertex="1" parent="1">
          <mxGeometry x="890.67" y="1730" width="646.6666666666666" height="100" as="geometry" />
        </mxCell>
        <mxCell id="Bg-LwxP5u8JBHM3GzIbE-148" value="" style="strokeColor=#FFFFFF;fillColor=#BAC8D3;fontSize=18;strokeWidth=2;fontFamily=Helvetica;html=1;opacity=90;" vertex="1" parent="1">
          <mxGeometry x="890.67" y="1630" width="646.6666666666666" height="100" as="geometry" />
        </mxCell>
        <mxCell id="Bg-LwxP5u8JBHM3GzIbE-146" value="" style="strokeColor=#FFFFFF;fillColor=#BAC8D3;fontSize=18;strokeWidth=2;fontFamily=Helvetica;html=1;opacity=60;" vertex="1" parent="1">
          <mxGeometry x="244" y="1730.5" width="646.6666666666666" height="100" as="geometry" />
        </mxCell>
        <mxCell id="Bg-LwxP5u8JBHM3GzIbE-144" value="" style="strokeColor=#FFFFFF;fillColor=#BAC8D3;fontSize=18;strokeWidth=2;fontFamily=Helvetica;html=1;opacity=90;" vertex="1" parent="1">
          <mxGeometry x="244" y="1630.5" width="646.6666666666666" height="100" as="geometry" />
        </mxCell>
        <mxCell id="QCx148pyQ3E5ddYZ-PJV-153" value="" style="strokeColor=#FFFFFF;fillColor=#BAC8D3;fontSize=18;strokeWidth=2;fontFamily=Helvetica;html=1;opacity=60;" parent="1" vertex="1">
          <mxGeometry x="2184.003333333333" y="930.5" width="647" height="100" as="geometry" />
        </mxCell>
        <mxCell id="QCx148pyQ3E5ddYZ-PJV-151" value="" style="strokeColor=#FFFFFF;fillColor=#BAC8D3;fontSize=18;strokeWidth=2;fontFamily=Helvetica;html=1;opacity=90;" parent="1" vertex="1">
          <mxGeometry x="2184.333333333333" y="1030.5" width="646.6666666666666" height="100" as="geometry" />
        </mxCell>
        <mxCell id="QCx148pyQ3E5ddYZ-PJV-150" value="" style="strokeColor=#FFFFFF;fillColor=#BAC8D3;fontSize=18;strokeWidth=2;fontFamily=Helvetica;html=1;opacity=60;" parent="1" vertex="1">
          <mxGeometry x="2184.003333333333" y="1130.5" width="646.6666666666666" height="100" as="geometry" />
        </mxCell>
        <mxCell id="QCx148pyQ3E5ddYZ-PJV-148" value="" style="strokeColor=#FFFFFF;fillColor=#BAC8D3;fontSize=18;strokeWidth=2;fontFamily=Helvetica;html=1;opacity=90;" parent="1" vertex="1">
          <mxGeometry x="2184" y="1230.5" width="646.6666666666666" height="100" as="geometry" />
        </mxCell>
        <mxCell id="QCx148pyQ3E5ddYZ-PJV-154" value="" style="strokeColor=#FFFFFF;fillColor=#BAC8D3;fontSize=18;strokeWidth=2;fontFamily=Helvetica;html=1;opacity=60;" parent="1" vertex="1">
          <mxGeometry x="2184.333333333333" y="1330.5" width="646.6666666666666" height="100" as="geometry" />
        </mxCell>
        <mxCell id="QCx148pyQ3E5ddYZ-PJV-155" value="" style="strokeColor=#FFFFFF;fillColor=#BAC8D3;fontSize=18;strokeWidth=2;fontFamily=Helvetica;html=1;opacity=90;" parent="1" vertex="1">
          <mxGeometry x="2184.003333333333" y="1430.5" width="646.6666666666666" height="100" as="geometry" />
        </mxCell>
        <mxCell id="56" value="Project&#xa;" style="strokeColor=#BAC8D3;fillColor=#23445D;fontSize=24;strokeWidth=2;fontFamily=Helvetica;html=1;fontColor=#FFFFFF;fontStyle=0;spacingBottom=8;spacingRight=0;spacingLeft=83;" parent="1" vertex="1">
          <mxGeometry x="154" y="850.5" width="2030" height="80" as="geometry" />
        </mxCell>
        <mxCell id="57" value="Incident" style="strokeColor=#BAC8D3;fillColor=#23445D;fontSize=24;strokeWidth=2;horizontal=0;fontFamily=Helvetica;html=1;fontColor=#FFFFFF;fontStyle=0" parent="1" vertex="1">
          <mxGeometry x="154" y="930.5" width="50" height="300" as="geometry" />
        </mxCell>
        <mxCell id="58" value="Low" style="strokeColor=#BAC8D3;fillColor=#5d7f99;fontSize=19;strokeWidth=2;horizontal=0;fontFamily=Helvetica;html=1;labelBackgroundColor=none;fontColor=#FFFFFF;" parent="1" vertex="1">
          <mxGeometry x="204" y="930.5" width="40" height="100" as="geometry" />
        </mxCell>
        <mxCell id="59" value="CS Alert" style="strokeColor=#BAC8D3;fillColor=#5d7f99;fontSize=19;strokeWidth=2;fontFamily=Helvetica;html=1;labelBackgroundColor=none;fontColor=#FFFFFF;" parent="1" vertex="1">
          <mxGeometry x="154" y="850.5" width="90" height="80" as="geometry" />
        </mxCell>
        <mxCell id="60" value="Medium" style="strokeColor=#BAC8D3;fillColor=#5d7f99;fontSize=19;strokeWidth=2;horizontal=0;fontFamily=Helvetica;html=1;labelBackgroundColor=none;fontColor=#FFFFFF;" parent="1" vertex="1">
          <mxGeometry x="204" y="1030.5" width="40" height="100" as="geometry" />
        </mxCell>
        <mxCell id="61" value="High" style="strokeColor=#BAC8D3;fillColor=#5d7f99;fontSize=19;strokeWidth=2;horizontal=0;fontFamily=Helvetica;html=1;labelBackgroundColor=none;fontColor=#FFFFFF;" parent="1" vertex="1">
          <mxGeometry x="204" y="1130.5" width="40" height="100" as="geometry" />
        </mxCell>
        <mxCell id="62" value="Medium" style="strokeColor=#BAC8D3;fillColor=#5d7f99;fontSize=19;strokeWidth=2;horizontal=0;fontFamily=Helvetica;html=1;labelBackgroundColor=none;fontColor=#FFFFFF;" parent="1" vertex="1">
          <mxGeometry x="204" y="1330.5" width="40" height="100" as="geometry" />
        </mxCell>
        <mxCell id="63" value="Low" style="strokeColor=#BAC8D3;fillColor=#5d7f99;fontSize=19;strokeWidth=2;horizontal=0;fontFamily=Helvetica;html=1;labelBackgroundColor=none;fontColor=#FFFFFF;" parent="1" vertex="1">
          <mxGeometry x="204" y="1230.5" width="40" height="100" as="geometry" />
        </mxCell>
        <mxCell id="64" value="Detection" style="strokeColor=#BAC8D3;fillColor=#23445D;fontSize=24;strokeWidth=2;horizontal=0;fontFamily=Helvetica;html=1;fontColor=#FFFFFF;fontStyle=0" parent="1" vertex="1">
          <mxGeometry x="154" y="1230.5" width="50" height="299.5" as="geometry" />
        </mxCell>
        <mxCell id="65" value="Low" style="strokeColor=#BAC8D3;fillColor=#5d7f99;fontSize=19;strokeWidth=2;horizontal=0;fontFamily=Helvetica;html=1;labelBackgroundColor=none;fontColor=#FFFFFF;" parent="1" vertex="1">
          <mxGeometry x="204" y="1530.5" width="40" height="100" as="geometry" />
        </mxCell>
        <mxCell id="66" value="High" style="strokeColor=#BAC8D3;fillColor=#5d7f99;fontSize=19;strokeWidth=2;horizontal=0;fontFamily=Helvetica;html=1;labelBackgroundColor=none;fontColor=#FFFFFF;" parent="1" vertex="1">
          <mxGeometry x="204" y="1430.5" width="40" height="100" as="geometry" />
        </mxCell>
        <mxCell id="67" value="Notice" style="strokeColor=#BAC8D3;fillColor=#23445D;fontSize=24;strokeWidth=2;horizontal=0;fontFamily=Helvetica;html=1;fontColor=#FFFFFF;fontStyle=0" parent="1" vertex="1">
          <mxGeometry x="154" y="1530" width="50" height="300" as="geometry" />
        </mxCell>
        <mxCell id="68" value="" style="strokeColor=#FFFFFF;fillColor=#BAC8D3;fontSize=18;strokeWidth=2;fontFamily=Helvetica;html=1;opacity=60;" parent="1" vertex="1">
          <mxGeometry x="244" y="930.5" width="646.6666666666666" height="100" as="geometry" />
        </mxCell>
        <mxCell id="69" value="" style="strokeColor=#FFFFFF;fillColor=#BAC8D3;fontSize=18;strokeWidth=2;fontFamily=Helvetica;html=1;opacity=90;" parent="1" vertex="1">
          <mxGeometry x="244" y="1030.5" width="646.6666666666666" height="100" as="geometry" />
        </mxCell>
        <mxCell id="70" value="" style="strokeColor=#FFFFFF;fillColor=#BAC8D3;fontSize=18;strokeWidth=2;fontFamily=Helvetica;html=1;opacity=60;" parent="1" vertex="1">
          <mxGeometry x="244" y="1130.5" width="646.6666666666666" height="100" as="geometry" />
        </mxCell>
        <mxCell id="71" value="" style="strokeColor=#FFFFFF;fillColor=#BAC8D3;fontSize=18;strokeWidth=2;fontFamily=Helvetica;html=1;opacity=90;" parent="1" vertex="1">
          <mxGeometry x="244" y="1230.5" width="646.6666666666666" height="100" as="geometry" />
        </mxCell>
        <mxCell id="72" value="" style="strokeColor=#FFFFFF;fillColor=#BAC8D3;fontSize=18;strokeWidth=2;fontFamily=Helvetica;html=1;opacity=60;" parent="1" vertex="1">
          <mxGeometry x="244" y="1330.5" width="646.6666666666666" height="100" as="geometry" />
        </mxCell>
        <mxCell id="73" value="" style="strokeColor=#FFFFFF;fillColor=#BAC8D3;fontSize=18;strokeWidth=2;fontFamily=Helvetica;html=1;opacity=90;" parent="1" vertex="1">
          <mxGeometry x="244" y="1430.5" width="646.6666666666666" height="100" as="geometry" />
        </mxCell>
        <mxCell id="74" value="" style="strokeColor=#FFFFFF;fillColor=#BAC8D3;fontSize=18;strokeWidth=2;fontFamily=Helvetica;html=1;opacity=60;" parent="1" vertex="1">
          <mxGeometry x="244" y="1530.5" width="646.6666666666666" height="100" as="geometry" />
        </mxCell>
        <mxCell id="75" value="" style="strokeColor=#FFFFFF;fillColor=#BAC8D3;fontSize=18;strokeWidth=2;fontFamily=Helvetica;html=1;opacity=60;" parent="1" vertex="1">
          <mxGeometry x="890.6666666666666" y="930.5" width="647" height="100" as="geometry" />
        </mxCell>
        <mxCell id="76" value="" style="strokeColor=#FFFFFF;fillColor=#BAC8D3;fontSize=18;strokeWidth=2;fontFamily=Helvetica;html=1;opacity=90;" parent="1" vertex="1">
          <mxGeometry x="890.6666666666666" y="1030.5" width="646.6666666666666" height="100" as="geometry" />
        </mxCell>
        <mxCell id="77" value="" style="strokeColor=#FFFFFF;fillColor=#BAC8D3;fontSize=18;strokeWidth=2;fontFamily=Helvetica;html=1;opacity=60;" parent="1" vertex="1">
          <mxGeometry x="890.6666666666666" y="1130.5" width="646.6666666666666" height="100" as="geometry" />
        </mxCell>
        <mxCell id="78" value="" style="strokeColor=#FFFFFF;fillColor=#BAC8D3;fontSize=18;strokeWidth=2;fontFamily=Helvetica;html=1;opacity=90;" parent="1" vertex="1">
          <mxGeometry x="890.6666666666666" y="1230.5" width="646.6666666666666" height="100" as="geometry" />
        </mxCell>
        <mxCell id="79" value="" style="strokeColor=#FFFFFF;fillColor=#BAC8D3;fontSize=18;strokeWidth=2;fontFamily=Helvetica;html=1;opacity=60;" parent="1" vertex="1">
          <mxGeometry x="890.6666666666666" y="1330.5" width="646.6666666666666" height="100" as="geometry" />
        </mxCell>
        <mxCell id="81" value="" style="strokeColor=#FFFFFF;fillColor=#BAC8D3;fontSize=18;strokeWidth=2;fontFamily=Helvetica;html=1;opacity=60;fontStyle=4" parent="1" vertex="1">
          <mxGeometry x="890.6666666666666" y="1530.5" width="646.6666666666666" height="100" as="geometry" />
        </mxCell>
        <mxCell id="82" value="" style="strokeColor=#FFFFFF;fillColor=#BAC8D3;fontSize=18;strokeWidth=2;fontFamily=Helvetica;html=1;opacity=60;" parent="1" vertex="1">
          <mxGeometry x="1537.3333333333333" y="930.5" width="647" height="100" as="geometry" />
        </mxCell>
        <mxCell id="83" value="" style="strokeColor=#FFFFFF;fillColor=#BAC8D3;fontSize=18;strokeWidth=2;fontFamily=Helvetica;html=1;opacity=90;" parent="1" vertex="1">
          <mxGeometry x="1537.3333333333333" y="1030.5" width="646.6666666666666" height="100" as="geometry" />
        </mxCell>
        <mxCell id="84" value="" style="strokeColor=#FFFFFF;fillColor=#BAC8D3;fontSize=18;strokeWidth=2;fontFamily=Helvetica;html=1;opacity=60;" parent="1" vertex="1">
          <mxGeometry x="1537.3333333333333" y="1130.5" width="646.6666666666666" height="100" as="geometry" />
        </mxCell>
        <mxCell id="85" value="" style="strokeColor=#FFFFFF;fillColor=#BAC8D3;fontSize=18;strokeWidth=2;fontFamily=Helvetica;html=1;opacity=90;" parent="1" vertex="1">
          <mxGeometry x="1537.3333333333333" y="1230.5" width="646.6666666666666" height="100" as="geometry" />
        </mxCell>
        <mxCell id="86" value="" style="strokeColor=#FFFFFF;fillColor=#BAC8D3;fontSize=18;strokeWidth=2;fontFamily=Helvetica;html=1;opacity=60;" parent="1" vertex="1">
          <mxGeometry x="1537.3333333333333" y="1330.5" width="646.6666666666666" height="100" as="geometry" />
        </mxCell>
        <mxCell id="87" value="" style="strokeColor=#FFFFFF;fillColor=#BAC8D3;fontSize=18;strokeWidth=2;fontFamily=Helvetica;html=1;opacity=90;" parent="1" vertex="1">
          <mxGeometry x="1537.3333333333333" y="1430.5" width="646.6666666666666" height="100" as="geometry" />
        </mxCell>
        <mxCell id="88" value="" style="strokeColor=#FFFFFF;fillColor=#BAC8D3;fontSize=18;strokeWidth=2;fontFamily=Helvetica;html=1;opacity=60;fontStyle=4" parent="1" vertex="1">
          <mxGeometry x="1537.3333333333333" y="1530.5" width="646.6666666666666" height="100" as="geometry" />
        </mxCell>
        <mxCell id="Bg-LwxP5u8JBHM3GzIbE-156" value="" style="edgeStyle=orthogonalEdgeStyle;rounded=0;orthogonalLoop=1;jettySize=auto;html=1;strokeWidth=3;strokeColor=#0C343D;" edge="1" parent="1" source="90" target="Bg-LwxP5u8JBHM3GzIbE-155">
          <mxGeometry relative="1" as="geometry" />
        </mxCell>
        <mxCell id="90" value="&lt;font color=&quot;#FFFFFF&quot;&gt;Summary Review &lt;/font&gt;" style="rounded=1;fillColor=#23445D;strokeColor=none;strokeWidth=2;fontFamily=Helvetica;html=1;gradientColor=none;" parent="1" vertex="1">
          <mxGeometry x="270.3945578231293" y="955.5" width="127" height="50" as="geometry" />
        </mxCell>
        <mxCell id="91" value="&lt;font color=&quot;#FFFFFF&quot;&gt;Host Mgmt&lt;span style=&quot;white-space: pre;&quot;&gt;&lt;/span&gt;&lt;/font&gt;" style="rounded=1;fillColor=#23445D;strokeColor=none;strokeWidth=2;fontFamily=Helvetica;html=1;gradientColor=none;" parent="1" vertex="1">
          <mxGeometry x="715.9047619047619" y="955.5" width="127" height="50" as="geometry" />
        </mxCell>
        <mxCell id="Bg-LwxP5u8JBHM3GzIbE-256" value="" style="edgeStyle=orthogonalEdgeStyle;rounded=0;orthogonalLoop=1;jettySize=auto;html=1;strokeColor=#0C343D;strokeWidth=3;" edge="1" parent="1" source="97" target="Bg-LwxP5u8JBHM3GzIbE-255">
          <mxGeometry relative="1" as="geometry" />
        </mxCell>
        <mxCell id="97" value="&lt;font color=&quot;#FFFFFF&quot;&gt;Contain&lt;/font&gt;" style="rounded=1;fillColor=#23445D;strokeColor=none;strokeWidth=2;fontFamily=Helvetica;html=1;gradientColor=none;" parent="1" vertex="1">
          <mxGeometry x="1250.0049659863944" y="1050.5" width="127" height="50" as="geometry" />
        </mxCell>
        <mxCell id="Bg-LwxP5u8JBHM3GzIbE-413" style="edgeStyle=orthogonalEdgeStyle;rounded=1;orthogonalLoop=1;jettySize=auto;html=1;exitX=1;exitY=0.5;exitDx=0;exitDy=0;exitPerimeter=0;entryX=0;entryY=0.5;entryDx=0;entryDy=0;strokeColor=#663300;strokeWidth=3;dashed=1;" edge="1" parent="1" source="Bg-LwxP5u8JBHM3GzIbE-347" target="Bg-LwxP5u8JBHM3GzIbE-399">
          <mxGeometry relative="1" as="geometry" />
        </mxCell>
        <mxCell id="133" value="" style="edgeStyle=elbowEdgeStyle;elbow=horizontal;strokeWidth=3;strokeColor=#0C343D;fontFamily=Helvetica;html=1;" parent="1" source="97" target="108" edge="1">
          <mxGeometry x="6.448979591836746" y="830.5" width="131.97278911564624" height="100" as="geometry">
            <mxPoint x="6.448979591836746" y="930.5" as="sourcePoint" />
            <mxPoint x="138.421768707483" y="830.5" as="targetPoint" />
          </mxGeometry>
        </mxCell>
        <mxCell id="140" value="" style="group" parent="1" vertex="1" connectable="0">
          <mxGeometry x="244.34" y="891" width="3233.3299999999995" height="739.5" as="geometry" />
        </mxCell>
        <mxCell id="80" value="" style="strokeColor=#FFFFFF;fillColor=#BAC8D3;fontSize=18;strokeWidth=2;fontFamily=Helvetica;html=1;opacity=90;" parent="140" vertex="1">
          <mxGeometry x="646.6566666666666" y="539.5" width="646.6666666666666" height="100" as="geometry" />
        </mxCell>
        <mxCell id="141" value="Analysis" style="strokeColor=#BAC8D3;fillColor=#5d7f99;fontSize=19;strokeWidth=2;fontFamily=Helvetica;html=1;labelBackgroundColor=none;fontColor=#FFFFFF;" parent="140" vertex="1">
          <mxGeometry width="646.6656362699642" height="40" as="geometry" />
        </mxCell>
        <mxCell id="142" value="Core Response" style="strokeColor=#BAC8D3;fillColor=#5d7f99;fontSize=19;strokeWidth=2;fontFamily=Helvetica;html=1;labelBackgroundColor=none;fontColor=#FFFFFF;" parent="140" vertex="1">
          <mxGeometry x="646.6656362699642" width="646.6656362699642" height="40" as="geometry" />
        </mxCell>
        <mxCell id="143" value="Reporting " style="strokeColor=#BAC8D3;fillColor=#5d7f99;fontSize=19;strokeWidth=2;fontFamily=Helvetica;html=1;labelBackgroundColor=none;fontColor=#FFFFFF;" parent="140" vertex="1">
          <mxGeometry x="1293.3312725399282" width="646.6666666666666" height="40" as="geometry" />
        </mxCell>
        <mxCell id="QCx148pyQ3E5ddYZ-PJV-159" value="" style="strokeColor=#FFFFFF;fillColor=#BAC8D3;fontSize=18;strokeWidth=2;fontFamily=Helvetica;html=1;opacity=60;fontStyle=4" parent="140" vertex="1">
          <mxGeometry x="1939.9933333333329" y="639.5" width="646.6666666666666" height="100" as="geometry" />
        </mxCell>
        <mxCell id="QCx148pyQ3E5ddYZ-PJV-160" value="" style="group" parent="140" vertex="1" connectable="0">
          <mxGeometry x="-0.009999999999990905" width="646.6666666666666" height="40" as="geometry" />
        </mxCell>
        <mxCell id="QCx148pyQ3E5ddYZ-PJV-161" value="Analysis" style="strokeColor=#BAC8D3;fillColor=#5d7f99;fontSize=19;strokeWidth=2;fontFamily=Helvetica;html=1;labelBackgroundColor=none;fontColor=#FFFFFF;" parent="QCx148pyQ3E5ddYZ-PJV-160" vertex="1">
          <mxGeometry width="646.6656362699642" height="40" as="geometry" />
        </mxCell>
        <mxCell id="QCx148pyQ3E5ddYZ-PJV-162" value="Core Response" style="strokeColor=#BAC8D3;fillColor=#5d7f99;fontSize=19;strokeWidth=2;fontFamily=Helvetica;html=1;labelBackgroundColor=none;fontColor=#FFFFFF;" parent="QCx148pyQ3E5ddYZ-PJV-160" vertex="1">
          <mxGeometry x="646.6656362699642" width="646.6656362699642" height="40" as="geometry" />
        </mxCell>
        <mxCell id="QCx148pyQ3E5ddYZ-PJV-163" value="Documentation" style="strokeColor=#BAC8D3;fillColor=#5d7f99;fontSize=19;strokeWidth=2;fontFamily=Helvetica;html=1;labelBackgroundColor=none;fontColor=#FFFFFF;" parent="QCx148pyQ3E5ddYZ-PJV-160" vertex="1">
          <mxGeometry x="1293.3312725399282" width="646.6666666666666" height="40" as="geometry" />
        </mxCell>
        <mxCell id="QCx148pyQ3E5ddYZ-PJV-168" value="Reporting " style="strokeColor=#BAC8D3;fillColor=#5d7f99;fontSize=19;strokeWidth=2;fontFamily=Helvetica;html=1;labelBackgroundColor=none;fontColor=#FFFFFF;" parent="140" vertex="1">
          <mxGeometry x="1939.9979392065952" width="646.6666666666666" height="40" as="geometry" />
        </mxCell>
        <mxCell id="Bg-LwxP5u8JBHM3GzIbE-155" value="&lt;font color=&quot;#FFFFFF&quot;&gt;Categorize involved Host&lt;/font&gt;" style="whiteSpace=wrap;html=1;fillColor=#23445D;strokeColor=none;rounded=1;strokeWidth=2;gradientColor=none;" vertex="1" parent="140">
          <mxGeometry x="253.00455782312926" y="60" width="120" height="60" as="geometry" />
        </mxCell>
        <mxCell id="Bg-LwxP5u8JBHM3GzIbE-203" value="" style="edgeStyle=orthogonalEdgeStyle;rounded=1;orthogonalLoop=1;jettySize=auto;html=1;strokeWidth=3;strokeColor=#0C343D;" edge="1" parent="140" source="Bg-LwxP5u8JBHM3GzIbE-158" target="Bg-LwxP5u8JBHM3GzIbE-202">
          <mxGeometry relative="1" as="geometry" />
        </mxCell>
        <mxCell id="Bg-LwxP5u8JBHM3GzIbE-158" value="&lt;font color=&quot;#FFFFFF&quot;&gt;See full incident &lt;/font&gt;" style="rounded=1;fillColor=#23445D;strokeColor=none;strokeWidth=2;fontFamily=Helvetica;html=1;gradientColor=none;" vertex="1" parent="140">
          <mxGeometry x="26.054557823129272" y="159.5" width="127" height="50" as="geometry" />
        </mxCell>
        <mxCell id="Bg-LwxP5u8JBHM3GzIbE-202" value="&lt;font color=&quot;#FFFFFF&quot;&gt;Table incident &lt;/font&gt;" style="rounded=1;fillColor=#23445D;strokeColor=none;strokeWidth=2;fontFamily=Helvetica;html=1;gradientColor=none;" vertex="1" parent="140">
          <mxGeometry x="253.00455782312926" y="159.5" width="127" height="50" as="geometry" />
        </mxCell>
        <mxCell id="Bg-LwxP5u8JBHM3GzIbE-204" value="&lt;font color=&quot;#FFFFFF&quot;&gt;Check Software/ Process&lt;/font&gt;" style="whiteSpace=wrap;html=1;fillColor=#23445D;strokeColor=none;rounded=1;strokeWidth=2;gradientColor=none;shape=trapezoid;perimeter=trapezoidPerimeter;fixedSize=1;" vertex="1" parent="140">
          <mxGeometry x="475.66455782312926" y="154.5" width="120" height="60" as="geometry" />
        </mxCell>
        <mxCell id="Bg-LwxP5u8JBHM3GzIbE-205" value="" style="edgeStyle=orthogonalEdgeStyle;rounded=0;orthogonalLoop=1;jettySize=auto;html=1;strokeColor=#0C343D;strokeWidth=3;" edge="1" parent="140" source="Bg-LwxP5u8JBHM3GzIbE-202" target="Bg-LwxP5u8JBHM3GzIbE-204">
          <mxGeometry relative="1" as="geometry" />
        </mxCell>
        <mxCell id="Bg-LwxP5u8JBHM3GzIbE-208" value="&lt;font color=&quot;#FFFFFF&quot;&gt;Contact User&lt;/font&gt;" style="rounded=1;fillColor=#23445D;strokeColor=none;strokeWidth=2;fontFamily=Helvetica;html=1;gradientColor=none;" vertex="1" parent="140">
          <mxGeometry x="785.6645578231293" y="159.5" width="127" height="50" as="geometry" />
        </mxCell>
        <mxCell id="Bg-LwxP5u8JBHM3GzIbE-209" value="" style="edgeStyle=orthogonalEdgeStyle;rounded=0;orthogonalLoop=1;jettySize=auto;html=1;strokeColor=#0C343D;strokeWidth=3;" edge="1" parent="140" source="Bg-LwxP5u8JBHM3GzIbE-204" target="Bg-LwxP5u8JBHM3GzIbE-208">
          <mxGeometry relative="1" as="geometry" />
        </mxCell>
        <mxCell id="98" value="&lt;font color=&quot;#FFFFFF&quot;&gt;Contact User/ Admin&lt;/font&gt;" style="rounded=1;fillColor=#23445D;strokeColor=none;strokeWidth=2;fontFamily=Helvetica;html=1;gradientColor=none;" parent="140" vertex="1">
          <mxGeometry x="785.6614285714285" y="65" width="127" height="50" as="geometry" />
        </mxCell>
        <mxCell id="Bg-LwxP5u8JBHM3GzIbE-215" value="&lt;font color=&quot;#FFFFFF&quot;&gt;See full incident &lt;/font&gt;" style="rounded=1;fillColor=#23445D;strokeColor=none;strokeWidth=2;fontFamily=Helvetica;html=1;gradientColor=none;" vertex="1" parent="140">
          <mxGeometry x="26.054557823129272" y="259" width="127" height="50" as="geometry" />
        </mxCell>
        <mxCell id="Bg-LwxP5u8JBHM3GzIbE-216" value="&lt;font color=&quot;#FFFFFF&quot;&gt;Contextual detection&lt;/font&gt;" style="whiteSpace=wrap;html=1;fillColor=#23445D;strokeColor=none;rounded=1;strokeWidth=2;gradientColor=none;" vertex="1" parent="140">
          <mxGeometry x="253.00455782312926" y="254" width="120" height="60" as="geometry" />
        </mxCell>
        <mxCell id="Bg-LwxP5u8JBHM3GzIbE-217" value="" style="edgeStyle=orthogonalEdgeStyle;rounded=0;orthogonalLoop=1;jettySize=auto;html=1;strokeColor=#0C343D;strokeWidth=3;" edge="1" parent="140" source="Bg-LwxP5u8JBHM3GzIbE-215" target="Bg-LwxP5u8JBHM3GzIbE-216">
          <mxGeometry relative="1" as="geometry" />
        </mxCell>
        <mxCell id="Bg-LwxP5u8JBHM3GzIbE-254" style="edgeStyle=orthogonalEdgeStyle;rounded=1;orthogonalLoop=1;jettySize=auto;html=1;exitX=1;exitY=0.5;exitDx=0;exitDy=0;entryX=0;entryY=0.5;entryDx=0;entryDy=0;strokeColor=#0C343D;strokeWidth=3;" edge="1" parent="140" source="Bg-LwxP5u8JBHM3GzIbE-218" target="Bg-LwxP5u8JBHM3GzIbE-208">
          <mxGeometry relative="1" as="geometry" />
        </mxCell>
        <mxCell id="Bg-LwxP5u8JBHM3GzIbE-218" value="&lt;font color=&quot;#FFFFFF&quot;&gt;Check Software/ Process&lt;/font&gt;" style="shape=trapezoid;perimeter=trapezoidPerimeter;whiteSpace=wrap;html=1;fixedSize=1;fillColor=#23445D;strokeColor=none;rounded=1;strokeWidth=2;gradientColor=none;" vertex="1" parent="140">
          <mxGeometry x="475.66455782312926" y="254" width="120" height="60" as="geometry" />
        </mxCell>
        <mxCell id="Bg-LwxP5u8JBHM3GzIbE-219" value="" style="edgeStyle=orthogonalEdgeStyle;rounded=0;orthogonalLoop=1;jettySize=auto;html=1;strokeColor=#0C343D;strokeWidth=3;" edge="1" parent="140" source="Bg-LwxP5u8JBHM3GzIbE-216" target="Bg-LwxP5u8JBHM3GzIbE-218">
          <mxGeometry relative="1" as="geometry" />
        </mxCell>
        <mxCell id="Bg-LwxP5u8JBHM3GzIbE-247" value="&lt;font color=&quot;#FFFFFF&quot;&gt;Contain&lt;/font&gt;" style="whiteSpace=wrap;html=1;fillColor=#23445D;strokeColor=none;rounded=1;strokeWidth=2;gradientColor=none;" vertex="1" parent="140">
          <mxGeometry x="789.1645578231293" y="254" width="120" height="60" as="geometry" />
        </mxCell>
        <mxCell id="Bg-LwxP5u8JBHM3GzIbE-257" style="edgeStyle=orthogonalEdgeStyle;rounded=1;orthogonalLoop=1;jettySize=auto;html=1;exitX=1;exitY=0.5;exitDx=0;exitDy=0;entryX=0;entryY=0.5;entryDx=0;entryDy=0;strokeWidth=3;strokeColor=#0C343D;" edge="1" parent="140" source="105" target="Bg-LwxP5u8JBHM3GzIbE-255">
          <mxGeometry relative="1" as="geometry" />
        </mxCell>
        <mxCell id="105" value="&lt;font color=&quot;#FFFFFF&quot;&gt;Contact User &lt;/font&gt;" style="rounded=1;fillColor=#23445D;strokeColor=none;strokeWidth=2;fontFamily=Helvetica;html=1;gradientColor=none;" parent="140" vertex="1">
          <mxGeometry x="1005.66" y="256.25" width="127" height="55.5" as="geometry" />
        </mxCell>
        <mxCell id="Bg-LwxP5u8JBHM3GzIbE-253" value="" style="edgeStyle=orthogonalEdgeStyle;rounded=0;orthogonalLoop=1;jettySize=auto;html=1;strokeColor=#0C343D;strokeWidth=3;" edge="1" parent="140" source="Bg-LwxP5u8JBHM3GzIbE-247" target="105">
          <mxGeometry relative="1" as="geometry" />
        </mxCell>
        <mxCell id="Bg-LwxP5u8JBHM3GzIbE-255" value="&lt;div&gt;&lt;font color=&quot;#FFFFFF&quot;&gt;Reimage(ASM)&lt;/font&gt;&lt;/div&gt;" style="whiteSpace=wrap;html=1;fillColor=#23445D;strokeColor=none;rounded=1;strokeWidth=2;gradientColor=none;" vertex="1" parent="140">
          <mxGeometry x="1173.3349659863945" y="154.5" width="120" height="60" as="geometry" />
        </mxCell>
        <mxCell id="111" value="&lt;font color=&quot;#FFFFFF&quot;&gt;Sharepoint &lt;/font&gt;" style="rounded=1;fillColor=#23445D;strokeColor=none;strokeWidth=2;gradientColor=none;fontFamily=Helvetica;html=1;" parent="140" vertex="1">
          <mxGeometry x="1575.6616326530614" y="65" width="127" height="50" as="geometry" />
        </mxCell>
        <mxCell id="135" value="" style="edgeStyle=elbowEdgeStyle;elbow=horizontal;strokeWidth=3;strokeColor=#0C343D;fontFamily=Helvetica;html=1;" parent="140" source="98" target="111" edge="1">
          <mxGeometry x="-237.89102040816326" y="-60.5" width="131.97278911564624" height="100" as="geometry">
            <mxPoint x="-237.89102040816326" y="39.5" as="sourcePoint" />
            <mxPoint x="-105.91823129251699" y="-60.5" as="targetPoint" />
          </mxGeometry>
        </mxCell>
        <mxCell id="Bg-LwxP5u8JBHM3GzIbE-259" style="edgeStyle=orthogonalEdgeStyle;rounded=1;orthogonalLoop=1;jettySize=auto;html=1;exitX=1;exitY=0;exitDx=0;exitDy=0;entryX=0;entryY=0.5;entryDx=0;entryDy=0;strokeColor=#663300;strokeWidth=3;dashed=1;" edge="1" parent="140" source="Bg-LwxP5u8JBHM3GzIbE-208" target="111">
          <mxGeometry relative="1" as="geometry" />
        </mxCell>
        <mxCell id="Bg-LwxP5u8JBHM3GzIbE-304" value="&lt;font color=&quot;#FFFFFF&quot;&gt;Check Host &lt;/font&gt;" style="whiteSpace=wrap;html=1;fillColor=#23445D;strokeColor=none;rounded=1;strokeWidth=2;gradientColor=none;" vertex="1" parent="140">
          <mxGeometry x="33.05455782312927" y="359" width="120" height="60" as="geometry" />
        </mxCell>
        <mxCell id="Bg-LwxP5u8JBHM3GzIbE-351" value="" style="edgeStyle=orthogonalEdgeStyle;rounded=0;orthogonalLoop=1;jettySize=auto;html=1;strokeColor=#0C343D;strokeWidth=3;" edge="1" parent="140" source="Bg-LwxP5u8JBHM3GzIbE-344" target="Bg-LwxP5u8JBHM3GzIbE-345">
          <mxGeometry relative="1" as="geometry" />
        </mxCell>
        <mxCell id="Bg-LwxP5u8JBHM3GzIbE-344" value="&lt;font color=&quot;#FFFFFF&quot;&gt;Check Triggering Indicator&lt;br&gt;&lt;/font&gt;" style="whiteSpace=wrap;html=1;fillColor=#23445D;strokeColor=none;rounded=1;strokeWidth=2;gradientColor=none;" vertex="1" parent="140">
          <mxGeometry x="253.00455782312926" y="459" width="120" height="60" as="geometry" />
        </mxCell>
        <mxCell id="Bg-LwxP5u8JBHM3GzIbE-401" style="edgeStyle=orthogonalEdgeStyle;rounded=0;orthogonalLoop=1;jettySize=auto;html=1;exitX=1;exitY=0.5;exitDx=0;exitDy=0;entryX=0;entryY=0.5;entryDx=0;entryDy=0;strokeColor=#0C343D;strokeWidth=3;" edge="1" parent="140" source="Bg-LwxP5u8JBHM3GzIbE-345" target="Bg-LwxP5u8JBHM3GzIbE-399">
          <mxGeometry relative="1" as="geometry" />
        </mxCell>
        <mxCell id="Bg-LwxP5u8JBHM3GzIbE-345" value="&lt;font color=&quot;#FFFFFF&quot;&gt;Check Archer Auth &lt;br&gt;&lt;/font&gt;" style="whiteSpace=wrap;html=1;fillColor=#23445D;strokeColor=none;rounded=1;strokeWidth=2;gradientColor=none;shape=trapezoid;perimeter=trapezoidPerimeter;fixedSize=1;" vertex="1" parent="140">
          <mxGeometry x="465.66455782312926" y="459" width="120" height="60" as="geometry" />
        </mxCell>
        <mxCell id="Bg-LwxP5u8JBHM3GzIbE-411" style="edgeStyle=orthogonalEdgeStyle;rounded=0;orthogonalLoop=1;jettySize=auto;html=1;exitX=1;exitY=0.5;exitDx=0;exitDy=0;entryX=0;entryY=0.5;entryDx=0;entryDy=0;strokeColor=#0C343D;strokeWidth=3;" edge="1" parent="140" source="Bg-LwxP5u8JBHM3GzIbE-399" target="Bg-LwxP5u8JBHM3GzIbE-409">
          <mxGeometry relative="1" as="geometry" />
        </mxCell>
        <mxCell id="Bg-LwxP5u8JBHM3GzIbE-399" value="&lt;font color=&quot;#FFFFFF&quot;&gt;Contain&lt;/font&gt;" style="whiteSpace=wrap;html=1;fillColor=#23445D;strokeColor=none;rounded=1;strokeWidth=2;gradientColor=none;" vertex="1" parent="140">
          <mxGeometry x="792.6645578231293" y="459" width="120" height="60" as="geometry" />
        </mxCell>
        <mxCell id="Bg-LwxP5u8JBHM3GzIbE-409" value="&lt;div&gt;&lt;font color=&quot;#FFFFFF&quot;&gt;Reimage(ASM)&lt;/font&gt;&lt;/div&gt;" style="whiteSpace=wrap;html=1;fillColor=#23445D;strokeColor=none;rounded=1;strokeWidth=2;gradientColor=none;" vertex="1" parent="140">
          <mxGeometry x="1065.6649659863945" y="459" width="120" height="60" as="geometry" />
        </mxCell>
        <mxCell id="Bg-LwxP5u8JBHM3GzIbE-249" value="" style="edgeStyle=orthogonalEdgeStyle;rounded=0;orthogonalLoop=1;jettySize=auto;html=1;strokeColor=#0C343D;strokeWidth=3;" edge="1" parent="140" source="Bg-LwxP5u8JBHM3GzIbE-218" target="Bg-LwxP5u8JBHM3GzIbE-247">
          <mxGeometry relative="1" as="geometry" />
        </mxCell>
        <mxCell id="Bg-LwxP5u8JBHM3GzIbE-422" value="&lt;font color=&quot;#FFFFFF&quot;&gt;Sharepoint&lt;/font&gt;" style="whiteSpace=wrap;html=1;fillColor=#23445D;strokeColor=none;rounded=1;strokeWidth=2;gradientColor=none;" vertex="1" parent="140">
          <mxGeometry x="1579.1649659863945" y="459" width="120" height="60" as="geometry" />
        </mxCell>
        <mxCell id="Bg-LwxP5u8JBHM3GzIbE-522" value="" style="edgeStyle=orthogonalEdgeStyle;rounded=1;orthogonalLoop=1;jettySize=auto;html=1;strokeColor=#0C343D;strokeWidth=3;" edge="1" parent="140" source="Bg-LwxP5u8JBHM3GzIbE-473" target="Bg-LwxP5u8JBHM3GzIbE-519">
          <mxGeometry relative="1" as="geometry" />
        </mxCell>
        <mxCell id="Bg-LwxP5u8JBHM3GzIbE-473" value="&lt;font color=&quot;#FFFFFF&quot;&gt;Check Host &lt;/font&gt;" style="whiteSpace=wrap;html=1;fillColor=#23445D;strokeColor=none;rounded=1;strokeWidth=2;gradientColor=none;" vertex="1" parent="140">
          <mxGeometry x="33.05455782312927" y="559.5" width="120" height="60" as="geometry" />
        </mxCell>
        <mxCell id="Bg-LwxP5u8JBHM3GzIbE-521" value="" style="edgeStyle=orthogonalEdgeStyle;rounded=1;orthogonalLoop=1;jettySize=auto;html=1;strokeColor=#0C343D;strokeWidth=3;" edge="1" parent="140" source="Bg-LwxP5u8JBHM3GzIbE-519" target="Bg-LwxP5u8JBHM3GzIbE-520">
          <mxGeometry relative="1" as="geometry" />
        </mxCell>
        <mxCell id="Bg-LwxP5u8JBHM3GzIbE-519" value="&lt;font color=&quot;#FFFFFF&quot;&gt;Check Triggering Indicator&lt;br&gt;&lt;/font&gt;" style="whiteSpace=wrap;html=1;fillColor=#23445D;strokeColor=none;rounded=1;strokeWidth=2;gradientColor=none;" vertex="1" parent="140">
          <mxGeometry x="253.00455782312926" y="559.5" width="120" height="60" as="geometry" />
        </mxCell>
        <mxCell id="Bg-LwxP5u8JBHM3GzIbE-523" style="edgeStyle=orthogonalEdgeStyle;rounded=1;orthogonalLoop=1;jettySize=auto;html=1;exitX=1;exitY=0.5;exitDx=0;exitDy=0;entryX=0.5;entryY=1;entryDx=0;entryDy=0;strokeColor=#663300;strokeWidth=3;dashed=1;" edge="1" parent="140" source="Bg-LwxP5u8JBHM3GzIbE-520" target="Bg-LwxP5u8JBHM3GzIbE-399">
          <mxGeometry relative="1" as="geometry" />
        </mxCell>
        <mxCell id="Bg-LwxP5u8JBHM3GzIbE-525" style="edgeStyle=orthogonalEdgeStyle;rounded=1;orthogonalLoop=1;jettySize=auto;html=1;exitX=1;exitY=0.5;exitDx=0;exitDy=0;entryX=0;entryY=0.5;entryDx=0;entryDy=0;strokeColor=#0C343D;strokeWidth=3;" edge="1" parent="140" source="Bg-LwxP5u8JBHM3GzIbE-520" target="Bg-LwxP5u8JBHM3GzIbE-524">
          <mxGeometry relative="1" as="geometry" />
        </mxCell>
        <mxCell id="Bg-LwxP5u8JBHM3GzIbE-520" value="&lt;font color=&quot;#FFFFFF&quot;&gt;Check Archer Auth &lt;br&gt;&lt;/font&gt;" style="whiteSpace=wrap;html=1;fillColor=#23445D;strokeColor=none;rounded=1;strokeWidth=2;gradientColor=none;shape=trapezoid;perimeter=trapezoidPerimeter;fixedSize=1;" vertex="1" parent="140">
          <mxGeometry x="465.66455782312926" y="559.5" width="120" height="60" as="geometry" />
        </mxCell>
        <mxCell id="Bg-LwxP5u8JBHM3GzIbE-527" style="edgeStyle=orthogonalEdgeStyle;rounded=1;orthogonalLoop=1;jettySize=auto;html=1;exitX=1;exitY=0.5;exitDx=0;exitDy=0;entryX=0;entryY=0.5;entryDx=0;entryDy=0;strokeColor=#0C343D;strokeWidth=3;" edge="1" parent="140" source="Bg-LwxP5u8JBHM3GzIbE-524" target="Bg-LwxP5u8JBHM3GzIbE-526">
          <mxGeometry relative="1" as="geometry" />
        </mxCell>
        <mxCell id="Bg-LwxP5u8JBHM3GzIbE-524" value="&lt;font color=&quot;#FFFFFF&quot;&gt;Contact User&lt;/font&gt;" style="whiteSpace=wrap;html=1;fillColor=#23445D;strokeColor=none;rounded=1;strokeWidth=2;gradientColor=none;" vertex="1" parent="140">
          <mxGeometry x="789.1645578231293" y="559.5" width="120" height="60" as="geometry" />
        </mxCell>
        <mxCell id="Bg-LwxP5u8JBHM3GzIbE-528" style="edgeStyle=orthogonalEdgeStyle;rounded=1;orthogonalLoop=1;jettySize=auto;html=1;exitX=1;exitY=0.5;exitDx=0;exitDy=0;entryX=0.5;entryY=1;entryDx=0;entryDy=0;strokeColor=#0C343D;strokeWidth=3;" edge="1" parent="140" source="Bg-LwxP5u8JBHM3GzIbE-526" target="Bg-LwxP5u8JBHM3GzIbE-422">
          <mxGeometry relative="1" as="geometry" />
        </mxCell>
        <mxCell id="Bg-LwxP5u8JBHM3GzIbE-526" value="&lt;font color=&quot;#FFFFFF&quot;&gt;False Positive&lt;/font&gt;" style="whiteSpace=wrap;html=1;fillColor=#23445D;strokeColor=none;rounded=1;strokeWidth=2;gradientColor=none;" vertex="1" parent="140">
          <mxGeometry x="1065.6649659863945" y="559.5" width="120" height="60" as="geometry" />
        </mxCell>
        <mxCell id="Bg-LwxP5u8JBHM3GzIbE-530" value="&lt;font color=&quot;#FFFFFF&quot;&gt;Contact User&lt;/font&gt;" style="whiteSpace=wrap;html=1;fillColor=#23445D;strokeColor=none;rounded=1;strokeWidth=2;gradientColor=none;" vertex="1" parent="140">
          <mxGeometry x="669.1645578231293" y="659.5" width="120" height="60" as="geometry" />
        </mxCell>
        <mxCell id="Bg-LwxP5u8JBHM3GzIbE-536" style="edgeStyle=orthogonalEdgeStyle;rounded=1;orthogonalLoop=1;jettySize=auto;html=1;exitX=1;exitY=0.5;exitDx=0;exitDy=0;entryX=0;entryY=0.5;entryDx=0;entryDy=0;strokeColor=#663300;strokeWidth=3;dashed=1;" edge="1" parent="140" source="Bg-LwxP5u8JBHM3GzIbE-345" target="Bg-LwxP5u8JBHM3GzIbE-524">
          <mxGeometry relative="1" as="geometry" />
        </mxCell>
        <mxCell id="Bg-LwxP5u8JBHM3GzIbE-211" value="" style="edgeStyle=orthogonalEdgeStyle;rounded=0;orthogonalLoop=1;jettySize=auto;html=1;strokeWidth=3;strokeColor=#0C343D;" edge="1" parent="1" source="108" target="Bg-LwxP5u8JBHM3GzIbE-210">
          <mxGeometry relative="1" as="geometry" />
        </mxCell>
        <mxCell id="108" value="&lt;font color=&quot;#FFFFFF&quot;&gt;Archer &lt;/font&gt;" style="rounded=1;fillColor=#23445D;strokeColor=none;strokeWidth=2;gradientColor=none;fontFamily=Helvetica;html=1;" parent="1" vertex="1">
          <mxGeometry x="1573.7278911564624" y="1050.5" width="127" height="50" as="geometry" />
        </mxCell>
        <mxCell id="122" value="" style="edgeStyle=elbowEdgeStyle;elbow=horizontal;strokeWidth=3;strokeColor=#0C343D;fontFamily=Helvetica;html=1;" parent="1" source="91" target="98" edge="1">
          <mxGeometry x="6.448979591836746" y="830.5" width="131.97278911564624" height="100" as="geometry">
            <mxPoint x="6.448979591836746" y="930.5" as="sourcePoint" />
            <mxPoint x="138.421768707483" y="830.5" as="targetPoint" />
          </mxGeometry>
        </mxCell>
        <mxCell id="Bg-LwxP5u8JBHM3GzIbE-145" value="Medium" style="strokeColor=#BAC8D3;fillColor=#5d7f99;fontSize=19;strokeWidth=2;horizontal=0;fontFamily=Helvetica;html=1;labelBackgroundColor=none;fontColor=#FFFFFF;" vertex="1" parent="1">
          <mxGeometry x="204" y="1630.5" width="40" height="100" as="geometry" />
        </mxCell>
        <mxCell id="Bg-LwxP5u8JBHM3GzIbE-147" value="High" style="strokeColor=#BAC8D3;fillColor=#5d7f99;fontSize=19;strokeWidth=2;horizontal=0;fontFamily=Helvetica;html=1;labelBackgroundColor=none;fontColor=#FFFFFF;" vertex="1" parent="1">
          <mxGeometry x="204" y="1730" width="40" height="100" as="geometry" />
        </mxCell>
        <mxCell id="Bg-LwxP5u8JBHM3GzIbE-157" value="" style="edgeStyle=orthogonalEdgeStyle;rounded=0;orthogonalLoop=1;jettySize=auto;html=1;strokeWidth=3;strokeColor=#0C343D;" edge="1" parent="1" source="Bg-LwxP5u8JBHM3GzIbE-155" target="91">
          <mxGeometry relative="1" as="geometry" />
        </mxCell>
        <mxCell id="Bg-LwxP5u8JBHM3GzIbE-210" value="&lt;font color=&quot;#FFFFFF&quot;&gt;&lt;span style=&quot;background-color: transparent;&quot;&gt;Sharepoint&lt;/span&gt;&lt;/font&gt;" style="whiteSpace=wrap;html=1;fillColor=#23445D;strokeColor=none;rounded=1;strokeWidth=2;gradientColor=none;" vertex="1" parent="1">
          <mxGeometry x="1819.9978911564624" y="1045.5" width="120" height="60" as="geometry" />
        </mxCell>
        <mxCell id="Bg-LwxP5u8JBHM3GzIbE-212" value="" style="edgeStyle=orthogonalEdgeStyle;rounded=0;orthogonalLoop=1;jettySize=auto;html=1;strokeColor=#0C343D;strokeWidth=3;" edge="1" parent="1" source="Bg-LwxP5u8JBHM3GzIbE-208" target="97">
          <mxGeometry relative="1" as="geometry" />
        </mxCell>
        <mxCell id="Bg-LwxP5u8JBHM3GzIbE-214" style="edgeStyle=orthogonalEdgeStyle;rounded=1;orthogonalLoop=1;jettySize=auto;html=1;exitX=1;exitY=0.5;exitDx=0;exitDy=0;entryX=0;entryY=0.5;entryDx=0;entryDy=0;strokeColor=#0C343D;strokeWidth=3;" edge="1" parent="1" source="98" target="97">
          <mxGeometry relative="1" as="geometry" />
        </mxCell>
        <mxCell id="Bg-LwxP5u8JBHM3GzIbE-350" value="" style="edgeStyle=orthogonalEdgeStyle;rounded=0;orthogonalLoop=1;jettySize=auto;html=1;strokeColor=#0C343D;strokeWidth=3;" edge="1" parent="1" source="Bg-LwxP5u8JBHM3GzIbE-303" target="Bg-LwxP5u8JBHM3GzIbE-305">
          <mxGeometry relative="1" as="geometry" />
        </mxCell>
        <mxCell id="Bg-LwxP5u8JBHM3GzIbE-303" value="&lt;font color=&quot;#FFFFFF&quot;&gt;Check Triggering Indicator &lt;/font&gt;" style="whiteSpace=wrap;html=1;fillColor=#23445D;strokeColor=none;rounded=1;strokeWidth=2;gradientColor=none;" vertex="1" parent="1">
          <mxGeometry x="497.34455782312926" y="1250" width="120" height="60" as="geometry" />
        </mxCell>
        <mxCell id="Bg-LwxP5u8JBHM3GzIbE-348" value="" style="edgeStyle=orthogonalEdgeStyle;orthogonalLoop=1;jettySize=auto;html=1;strokeColor=#0C343D;strokeWidth=3;rounded=1;" edge="1" parent="1" source="Bg-LwxP5u8JBHM3GzIbE-305" target="Bg-LwxP5u8JBHM3GzIbE-347">
          <mxGeometry relative="1" as="geometry" />
        </mxCell>
        <mxCell id="Bg-LwxP5u8JBHM3GzIbE-400" style="edgeStyle=orthogonalEdgeStyle;rounded=0;orthogonalLoop=1;jettySize=auto;html=1;exitX=1;exitY=0.5;exitDx=0;exitDy=0;entryX=0;entryY=0.5;entryDx=0;entryDy=0;strokeColor=#0C343D;strokeWidth=3;" edge="1" parent="1" source="Bg-LwxP5u8JBHM3GzIbE-305" target="Bg-LwxP5u8JBHM3GzIbE-398">
          <mxGeometry relative="1" as="geometry" />
        </mxCell>
        <mxCell id="Bg-LwxP5u8JBHM3GzIbE-305" value="&lt;font color=&quot;#FFFFFF&quot;&gt;Check Archer auth&lt;br&gt;&lt;/font&gt;" style="whiteSpace=wrap;html=1;fillColor=#23445D;strokeColor=none;rounded=1;strokeWidth=2;gradientColor=none;shape=trapezoid;perimeter=trapezoidPerimeter;fixedSize=1;" vertex="1" parent="1">
          <mxGeometry x="710.0045578231293" y="1250.5" width="120" height="60" as="geometry" />
        </mxCell>
        <mxCell id="Bg-LwxP5u8JBHM3GzIbE-352" value="" style="edgeStyle=orthogonalEdgeStyle;rounded=1;orthogonalLoop=1;jettySize=auto;html=1;strokeColor=#0C343D;strokeWidth=3;" edge="1" parent="1" source="Bg-LwxP5u8JBHM3GzIbE-343" target="Bg-LwxP5u8JBHM3GzIbE-344">
          <mxGeometry relative="1" as="geometry" />
        </mxCell>
        <mxCell id="Bg-LwxP5u8JBHM3GzIbE-343" value="&lt;font color=&quot;#FFFFFF&quot;&gt;Check Host &lt;/font&gt;" style="whiteSpace=wrap;html=1;fillColor=#23445D;strokeColor=none;rounded=1;strokeWidth=2;gradientColor=none;" vertex="1" parent="1">
          <mxGeometry x="277.3945578231293" y="1350" width="120" height="60" as="geometry" />
        </mxCell>
        <mxCell id="Bg-LwxP5u8JBHM3GzIbE-404" value="" style="edgeStyle=orthogonalEdgeStyle;rounded=1;orthogonalLoop=1;jettySize=auto;html=1;strokeColor=#663300;strokeWidth=3;dashed=1;" edge="1" parent="1" source="Bg-LwxP5u8JBHM3GzIbE-347" target="Bg-LwxP5u8JBHM3GzIbE-398">
          <mxGeometry relative="1" as="geometry" />
        </mxCell>
        <mxCell id="Bg-LwxP5u8JBHM3GzIbE-405" style="edgeStyle=orthogonalEdgeStyle;rounded=0;orthogonalLoop=1;jettySize=auto;html=1;exitX=1;exitY=0.5;exitDx=0;exitDy=0;exitPerimeter=0;entryX=0;entryY=0.5;entryDx=0;entryDy=0;entryPerimeter=0;strokeColor=#0C343D;strokeWidth=3;" edge="1" parent="1" source="Bg-LwxP5u8JBHM3GzIbE-347" target="Bg-LwxP5u8JBHM3GzIbE-403">
          <mxGeometry relative="1" as="geometry" />
        </mxCell>
        <mxCell id="Bg-LwxP5u8JBHM3GzIbE-347" value="&lt;font color=&quot;#FFFFFF&quot;&gt;Quarantined&lt;/font&gt;" style="strokeWidth=2;html=1;shape=mxgraph.flowchart.multi-document;whiteSpace=wrap;fillColor=#23445D;strokeColor=#FFFFFF;" vertex="1" parent="1">
          <mxGeometry x="930" y="1300" width="88" height="60" as="geometry" />
        </mxCell>
        <mxCell id="Bg-LwxP5u8JBHM3GzIbE-349" value="" style="edgeStyle=orthogonalEdgeStyle;orthogonalLoop=1;jettySize=auto;html=1;strokeColor=#0C343D;strokeWidth=3;rounded=1;" edge="1" parent="1" source="Bg-LwxP5u8JBHM3GzIbE-345" target="Bg-LwxP5u8JBHM3GzIbE-347">
          <mxGeometry relative="1" as="geometry" />
        </mxCell>
        <mxCell id="Bg-LwxP5u8JBHM3GzIbE-353" value="" style="edgeStyle=orthogonalEdgeStyle;rounded=0;orthogonalLoop=1;jettySize=auto;html=1;strokeColor=#0C343D;strokeWidth=3;" edge="1" parent="1" source="Bg-LwxP5u8JBHM3GzIbE-304" target="Bg-LwxP5u8JBHM3GzIbE-303">
          <mxGeometry relative="1" as="geometry" />
        </mxCell>
        <mxCell id="Bg-LwxP5u8JBHM3GzIbE-408" style="edgeStyle=orthogonalEdgeStyle;rounded=1;orthogonalLoop=1;jettySize=auto;html=1;exitX=1;exitY=0.5;exitDx=0;exitDy=0;entryX=0;entryY=0.5;entryDx=0;entryDy=0;strokeColor=#0C343D;strokeWidth=3;" edge="1" parent="1" source="Bg-LwxP5u8JBHM3GzIbE-398" target="Bg-LwxP5u8JBHM3GzIbE-406">
          <mxGeometry relative="1" as="geometry" />
        </mxCell>
        <mxCell id="Bg-LwxP5u8JBHM3GzIbE-412" value="" style="edgeStyle=orthogonalEdgeStyle;rounded=0;orthogonalLoop=1;jettySize=auto;html=1;strokeColor=#663300;strokeWidth=3;dashed=1;" edge="1" parent="1" source="Bg-LwxP5u8JBHM3GzIbE-398" target="Bg-LwxP5u8JBHM3GzIbE-399">
          <mxGeometry relative="1" as="geometry" />
        </mxCell>
        <mxCell id="Bg-LwxP5u8JBHM3GzIbE-398" value="&lt;font color=&quot;#FFFFFF&quot;&gt;Contact User&lt;/font&gt;" style="whiteSpace=wrap;html=1;fillColor=#23445D;strokeColor=none;rounded=1;strokeWidth=2;gradientColor=none;" vertex="1" parent="1">
          <mxGeometry x="1037.0045578231293" y="1250" width="120" height="60" as="geometry" />
        </mxCell>
        <mxCell id="Bg-LwxP5u8JBHM3GzIbE-427" style="edgeStyle=orthogonalEdgeStyle;rounded=1;orthogonalLoop=1;jettySize=auto;html=1;exitX=1;exitY=0.5;exitDx=0;exitDy=0;exitPerimeter=0;entryX=0;entryY=0;entryDx=0;entryDy=0;strokeColor=#0C343D;strokeWidth=3;" edge="1" parent="1" source="Bg-LwxP5u8JBHM3GzIbE-403" target="Bg-LwxP5u8JBHM3GzIbE-422">
          <mxGeometry relative="1" as="geometry" />
        </mxCell>
        <mxCell id="Bg-LwxP5u8JBHM3GzIbE-403" value="&lt;font color=&quot;#FFFFFF&quot;&gt;Delete QT&lt;/font&gt;" style="strokeWidth=2;html=1;shape=mxgraph.flowchart.document2;whiteSpace=wrap;size=0.25;fillColor=#23445D;strokeColor=#23445D;" vertex="1" parent="1">
          <mxGeometry x="1169" y="1300" width="100" height="60" as="geometry" />
        </mxCell>
        <mxCell id="Bg-LwxP5u8JBHM3GzIbE-426" style="edgeStyle=orthogonalEdgeStyle;rounded=1;orthogonalLoop=1;jettySize=auto;html=1;exitX=1;exitY=0.5;exitDx=0;exitDy=0;entryX=0.5;entryY=0;entryDx=0;entryDy=0;strokeColor=#0C343D;strokeWidth=3;" edge="1" parent="1" source="Bg-LwxP5u8JBHM3GzIbE-406" target="Bg-LwxP5u8JBHM3GzIbE-422">
          <mxGeometry relative="1" as="geometry" />
        </mxCell>
        <mxCell id="Bg-LwxP5u8JBHM3GzIbE-406" value="&lt;font color=&quot;#FFFFFF&quot;&gt;False Positive&lt;/font&gt;" style="whiteSpace=wrap;html=1;fillColor=#23445D;strokeColor=none;rounded=1;strokeWidth=2;gradientColor=none;" vertex="1" parent="1">
          <mxGeometry x="1310.0049659863944" y="1250" width="120" height="60" as="geometry" />
        </mxCell>
        <mxCell id="Bg-LwxP5u8JBHM3GzIbE-425" style="edgeStyle=orthogonalEdgeStyle;rounded=0;orthogonalLoop=1;jettySize=auto;html=1;exitX=1;exitY=0.5;exitDx=0;exitDy=0;entryX=0;entryY=0.5;entryDx=0;entryDy=0;strokeColor=#0C343D;strokeWidth=3;" edge="1" parent="1" source="Bg-LwxP5u8JBHM3GzIbE-419" target="Bg-LwxP5u8JBHM3GzIbE-422">
          <mxGeometry relative="1" as="geometry" />
        </mxCell>
        <mxCell id="Bg-LwxP5u8JBHM3GzIbE-419" value="&lt;font color=&quot;#FFFFFF&quot;&gt;Archer&lt;/font&gt;" style="whiteSpace=wrap;html=1;fillColor=#23445D;strokeColor=none;rounded=1;strokeWidth=2;gradientColor=none;" vertex="1" parent="1">
          <mxGeometry x="1570.0049659863944" y="1350" width="120" height="60" as="geometry" />
        </mxCell>
        <mxCell id="Bg-LwxP5u8JBHM3GzIbE-424" style="edgeStyle=orthogonalEdgeStyle;rounded=0;orthogonalLoop=1;jettySize=auto;html=1;exitX=1;exitY=0.5;exitDx=0;exitDy=0;entryX=0;entryY=0.5;entryDx=0;entryDy=0;strokeColor=#0C343D;strokeWidth=3;" edge="1" parent="1" source="Bg-LwxP5u8JBHM3GzIbE-409" target="Bg-LwxP5u8JBHM3GzIbE-419">
          <mxGeometry relative="1" as="geometry" />
        </mxCell>
        <mxCell id="Bg-LwxP5u8JBHM3GzIbE-535" style="edgeStyle=orthogonalEdgeStyle;rounded=1;orthogonalLoop=1;jettySize=auto;html=1;exitX=1;exitY=0.5;exitDx=0;exitDy=0;entryX=0;entryY=0.5;entryDx=0;entryDy=0;strokeWidth=3;strokeColor=#663300;dashed=1;" edge="1" parent="1" source="Bg-LwxP5u8JBHM3GzIbE-529" target="Bg-LwxP5u8JBHM3GzIbE-534">
          <mxGeometry relative="1" as="geometry" />
        </mxCell>
        <mxCell id="Bg-LwxP5u8JBHM3GzIbE-529" value="&lt;font color=&quot;#FFFFFF&quot;&gt;Check ASM Description &lt;/font&gt;" style="whiteSpace=wrap;html=1;fillColor=#23445D;strokeColor=none;rounded=1;strokeWidth=2;gradientColor=none;" vertex="1" parent="1">
          <mxGeometry x="277.3945578231293" y="1550.5" width="120" height="60" as="geometry" />
        </mxCell>
        <mxCell id="Bg-LwxP5u8JBHM3GzIbE-534" value="&lt;font color=&quot;#FFFFFF&quot;&gt;Phishing Campaign&lt;/font&gt;" style="ellipse;shape=umlEntity;whiteSpace=wrap;html=1;fillColor=#23445D;" vertex="1" parent="1">
          <mxGeometry x="417.34000000000003" y="1590" width="80" height="80" as="geometry" />
        </mxCell>
      </root>
    </mxGraphModel>
  </diagram>
</mxfile>
